<mxfile host="65bd71144e">
    <diagram id="xoc89Yim1YW10hTkWC6X" name="Page-1">
        <mxGraphModel dx="3217" dy="1611" grid="1" gridSize="10" guides="1" tooltips="1" connect="1" arrows="1" fold="1" page="1" pageScale="1" pageWidth="850" pageHeight="1100" math="0" shadow="0">
            <root>
                <mxCell id="0"/>
                <mxCell id="1" parent="0"/>
                <mxCell id="3" value="&lt;font style=&quot;font-size: 20px;&quot;&gt;&lt;b&gt;Storage&lt;/b&gt;&lt;/font&gt;" style="fontColor=#0066CC;verticalAlign=top;verticalLabelPosition=bottom;labelPosition=center;align=center;html=1;outlineConnect=0;fillColor=#FFFFFF;strokeColor=#6881B3;gradientColor=none;gradientDirection=north;strokeWidth=2;shape=mxgraph.networks.storage;hachureGap=4;fontFamily=Architects Daughter;fontSource=https%3A%2F%2Ffonts.googleapis.com%2Fcss%3Ffamily%3DArchitects%2BDaughter;fontSize=20;" vertex="1" parent="1">
                    <mxGeometry x="868" y="210" width="100" height="100" as="geometry"/>
                </mxCell>
                <mxCell id="4" value="" style="shape=image;verticalLabelPosition=bottom;labelBackgroundColor=default;verticalAlign=top;aspect=fixed;imageAspect=0;image=https://seeklogo.com/images/M/minio-logo-4B2D780928-seeklogo.com.png;" vertex="1" parent="1">
                    <mxGeometry x="840" y="140" width="138.46" height="60" as="geometry"/>
                </mxCell>
                <mxCell id="6" style="edgeStyle=none;hachureGap=4;html=1;entryX=0;entryY=0.5;entryDx=0;entryDy=0;entryPerimeter=0;fontFamily=Architects Daughter;fontSource=https%3A%2F%2Ffonts.googleapis.com%2Fcss%3Ffamily%3DArchitects%2BDaughter;fontSize=20;" edge="1" parent="1" source="12" target="3">
                    <mxGeometry relative="1" as="geometry">
                        <mxPoint x="370" y="520" as="sourcePoint"/>
                    </mxGeometry>
                </mxCell>
                <mxCell id="12" value="&lt;span style=&quot;color: rgb(0, 102, 204); font-family: &amp;quot;Architects Daughter&amp;quot;; font-size: 20px;&quot;&gt;&lt;b&gt;Data Format&lt;/b&gt;&lt;/span&gt;" style="shadow=0;dashed=0;html=1;strokeColor=none;fillColor=#6881B3;labelPosition=center;verticalLabelPosition=bottom;verticalAlign=top;align=center;outlineConnect=0;shape=mxgraph.veeam.2d.file;fillStyle=auto;" vertex="1" parent="1">
                    <mxGeometry x="526.78" y="215" width="70" height="90" as="geometry"/>
                </mxCell>
                <mxCell id="15" value="" style="shape=image;verticalLabelPosition=bottom;labelBackgroundColor=default;verticalAlign=top;aspect=fixed;imageAspect=0;image=https://spark.apache.org/images/delta-lake-logo.png;" vertex="1" parent="1">
                    <mxGeometry x="483.39" y="127.5" width="156.78" height="85" as="geometry"/>
                </mxCell>
                <mxCell id="23" style="edgeStyle=none;html=1;entryX=0.5;entryY=0;entryDx=0;entryDy=0;entryPerimeter=0;" edge="1" parent="1" source="18" target="30">
                    <mxGeometry relative="1" as="geometry">
                        <mxPoint x="300" y="390" as="targetPoint"/>
                    </mxGeometry>
                </mxCell>
                <mxCell id="19" style="edgeStyle=none;html=1;" edge="1" parent="1" source="18" target="12">
                    <mxGeometry relative="1" as="geometry"/>
                </mxCell>
                <mxCell id="18" value="" style="sketch=0;html=1;aspect=fixed;strokeColor=none;shadow=0;align=center;verticalAlign=top;fillColor=#6881B3;shape=mxgraph.gcp2.compute_engine_2;fillStyle=auto;" vertex="1" parent="1">
                    <mxGeometry x="290" y="210" width="54" height="100" as="geometry"/>
                </mxCell>
                <mxCell id="21" value="" style="shape=image;verticalLabelPosition=bottom;labelBackgroundColor=default;verticalAlign=top;aspect=fixed;imageAspect=0;image=https://cdn.icon-icons.com/icons2/2699/PNG/512/apache_spark_logo_icon_170561.png;" vertex="1" parent="1">
                    <mxGeometry x="247" y="135" width="140" height="70" as="geometry"/>
                </mxCell>
                <mxCell id="20" value="&lt;span style=&quot;color: rgb(0, 102, 204); font-family: &amp;quot;Architects Daughter&amp;quot;; font-size: 20px;&quot;&gt;&lt;b&gt;Data Processing&lt;br&gt;&amp;amp; Data Catalog&lt;/b&gt;&lt;br&gt;&lt;/span&gt;" style="text;html=1;align=center;verticalAlign=middle;resizable=0;points=[];autosize=1;strokeColor=none;fillColor=none;glass=0;shadow=0;" vertex="1" parent="1">
                    <mxGeometry x="232" y="305" width="170" height="60" as="geometry"/>
                </mxCell>
                <mxCell id="27" style="edgeStyle=none;html=1;entryX=0.5;entryY=0;entryDx=0;entryDy=0;entryPerimeter=0;exitX=0.5;exitY=1;exitDx=0;exitDy=0;exitPerimeter=0;" edge="1" parent="1" source="30" target="26">
                    <mxGeometry relative="1" as="geometry">
                        <mxPoint x="317" y="580" as="sourcePoint"/>
                    </mxGeometry>
                </mxCell>
                <mxCell id="24" value="" style="shape=image;verticalLabelPosition=bottom;labelBackgroundColor=default;verticalAlign=top;aspect=fixed;imageAspect=0;image=https://upload.wikimedia.org/wikipedia/commons/thumb/b/bb/Apache_Hive_logo.svg/1138px-Apache_Hive_logo.svg.png;" vertex="1" parent="1">
                    <mxGeometry x="284.78" y="420" width="64.44" height="58" as="geometry"/>
                </mxCell>
                <mxCell id="26" value="&lt;font style=&quot;font-size: 20px;&quot;&gt;&lt;b&gt;Metastore DB&lt;/b&gt;&lt;/font&gt;" style="fontColor=#0066CC;verticalAlign=top;verticalLabelPosition=bottom;labelPosition=center;align=center;html=1;outlineConnect=0;fillColor=#FFFFFF;strokeColor=#6881B3;gradientColor=none;gradientDirection=north;strokeWidth=2;shape=mxgraph.networks.storage;hachureGap=4;fontFamily=Architects Daughter;fontSource=https%3A%2F%2Ffonts.googleapis.com%2Fcss%3Ffamily%3DArchitects%2BDaughter;fontSize=20;" vertex="1" parent="1">
                    <mxGeometry x="267" y="730" width="100" height="100" as="geometry"/>
                </mxCell>
                <mxCell id="29" value="" style="shape=image;verticalLabelPosition=bottom;labelBackgroundColor=default;verticalAlign=top;aspect=fixed;imageAspect=0;image=https://upload.wikimedia.org/wikipedia/commons/2/29/Postgresql_elephant.svg;" vertex="1" parent="1">
                    <mxGeometry x="292.77" y="670" width="48.46" height="50" as="geometry"/>
                </mxCell>
                <mxCell id="31" style="edgeStyle=orthogonalEdgeStyle;html=1;entryX=0;entryY=0.5;entryDx=0;entryDy=0;entryPerimeter=0;" edge="1" parent="1" source="30" target="3">
                    <mxGeometry relative="1" as="geometry">
                        <Array as="points">
                            <mxPoint x="740" y="540"/>
                            <mxPoint x="740" y="260"/>
                        </Array>
                    </mxGeometry>
                </mxCell>
                <mxCell id="30" value="&lt;font style=&quot;font-size: 20px;&quot;&gt;&lt;b&gt;Metastore&lt;/b&gt;&lt;/font&gt;" style="fontColor=#0066CC;verticalAlign=top;verticalLabelPosition=bottom;labelPosition=center;align=center;html=1;outlineConnect=0;fillColor=#FFFFFF;strokeColor=#6881B3;gradientColor=none;gradientDirection=north;strokeWidth=2;shape=mxgraph.networks.storage;hachureGap=4;fontFamily=Architects Daughter;fontSource=https%3A%2F%2Ffonts.googleapis.com%2Fcss%3Ffamily%3DArchitects%2BDaughter;fontSize=20;" vertex="1" parent="1">
                    <mxGeometry x="267" y="490" width="100" height="100" as="geometry"/>
                </mxCell>
                <mxCell id="37" value="" style="shape=image;verticalLabelPosition=bottom;labelBackgroundColor=default;verticalAlign=top;aspect=fixed;imageAspect=0;image=https://cognitivewaves.files.wordpress.com/2021/05/apache-thrift.png;" vertex="1" parent="1">
                    <mxGeometry x="257" y="380" width="120" height="30" as="geometry"/>
                </mxCell>
                <mxCell id="40" style="edgeStyle=orthogonalEdgeStyle;html=1;entryX=0.086;entryY=0.507;entryDx=0;entryDy=0;entryPerimeter=0;" edge="1" parent="1" source="39" target="18">
                    <mxGeometry relative="1" as="geometry">
                        <Array as="points">
                            <mxPoint x="150" y="492"/>
                            <mxPoint x="150" y="261"/>
                        </Array>
                    </mxGeometry>
                </mxCell>
                <mxCell id="52" value="" style="group" vertex="1" connectable="0" parent="1">
                    <mxGeometry x="670" y="237" width="153.33000000000004" height="73" as="geometry"/>
                </mxCell>
                <mxCell id="35" value="" style="shape=image;verticalLabelPosition=bottom;labelBackgroundColor=default;verticalAlign=top;aspect=fixed;imageAspect=0;image=https://upload.wikimedia.org/wikipedia/commons/3/38/Hadoop_logo_new.svg;" vertex="1" parent="52">
                    <mxGeometry width="153.33" height="46" as="geometry"/>
                </mxCell>
                <mxCell id="36" value="&lt;b style=&quot;border-color: var(--border-color); color: rgb(0, 102, 204); font-family: &amp;quot;Architects Daughter&amp;quot;; font-size: 20px;&quot;&gt;Hadoop AWS&lt;/b&gt;" style="text;html=1;align=center;verticalAlign=middle;resizable=0;points=[];autosize=1;strokeColor=none;fillColor=none;" vertex="1" parent="52">
                    <mxGeometry x="6.669999999999959" y="33" width="140" height="40" as="geometry"/>
                </mxCell>
                <mxCell id="64" value="" style="swimlane;startSize=0;shadow=0;glass=0;fillStyle=auto;strokeColor=#6881B3;fillColor=#6881B3;" vertex="1" parent="1">
                    <mxGeometry x="-133.48" y="105" width="1153.48" height="765" as="geometry"/>
                </mxCell>
                <mxCell id="47" value="" style="shape=image;verticalLabelPosition=bottom;labelBackgroundColor=default;verticalAlign=top;aspect=fixed;imageAspect=0;image=https://miro.medium.com/v2/resize:fit:1400/1*MAI0jVK9ZdsdrOZEm9II4w.png;" vertex="1" parent="64">
                    <mxGeometry x="33.480000000000004" y="295" width="135.03" height="47" as="geometry"/>
                </mxCell>
                <mxCell id="39" value="&lt;b style=&quot;border-color: var(--border-color); color: rgb(0, 102, 204); font-family: &amp;quot;Architects Daughter&amp;quot;; font-size: 20px;&quot;&gt;SQL Gateway&lt;/b&gt;" style="sketch=0;outlineConnect=0;fontColor=#232F3E;gradientColor=none;fillColor=#6881B3;strokeColor=none;dashed=0;verticalLabelPosition=bottom;verticalAlign=top;align=center;html=1;fontSize=12;fontStyle=0;aspect=fixed;pointerEvents=1;shape=mxgraph.aws4.internet_alt2;shadow=0;glass=0;fillStyle=auto;" vertex="1" parent="64">
                    <mxGeometry x="61.989999999999995" y="348" width="78" height="78" as="geometry"/>
                </mxCell>
                <mxCell id="65" value="" style="shape=image;verticalLabelPosition=bottom;labelBackgroundColor=default;verticalAlign=top;aspect=fixed;imageAspect=0;image=https://desosa.nl/projects/docker-compose/2020/03/02/images/docker-compose/logo_docker_compose.png;" vertex="1" parent="1">
                    <mxGeometry x="620" y="870" width="400" height="230.46" as="geometry"/>
                </mxCell>
                <mxCell id="66" value="" style="shape=image;verticalLabelPosition=bottom;labelBackgroundColor=default;verticalAlign=top;aspect=fixed;imageAspect=0;image=https://upload.wikimedia.org/wikipedia/commons/thumb/4/4e/Docker_%28container_engine%29_logo.svg/2560px-Docker_%28container_engine%29_logo.svg.png;" vertex="1" parent="1">
                    <mxGeometry x="-133" y="870" width="712.9" height="170" as="geometry"/>
                </mxCell>
                <mxCell id="68" style="edgeStyle=orthogonalEdgeStyle;html=1;entryX=0;entryY=0.5;entryDx=0;entryDy=0;" edge="1" parent="1" source="67" target="64">
                    <mxGeometry relative="1" as="geometry"/>
                </mxCell>
                <mxCell id="67" value="" style="swimlane;startSize=0;shadow=0;glass=0;fillStyle=auto;strokeColor=#6881B3;fillColor=#6881B3;" vertex="1" parent="1">
                    <mxGeometry x="-400" y="105" width="200" height="765" as="geometry"/>
                </mxCell>
                <mxCell id="51" value="" style="group" vertex="1" connectable="0" parent="67">
                    <mxGeometry x="55" y="132" width="90" height="92" as="geometry"/>
                </mxCell>
                <mxCell id="48" value="" style="shape=image;verticalLabelPosition=bottom;labelBackgroundColor=default;verticalAlign=top;aspect=fixed;imageAspect=0;image=https://upload.wikimedia.org/wikipedia/commons/thumb/b/bb/Apache_Hive_logo.svg/1138px-Apache_Hive_logo.svg.png;" vertex="1" parent="51">
                    <mxGeometry x="12.779999999999973" width="64.44" height="58" as="geometry"/>
                </mxCell>
                <mxCell id="49" value="&lt;b style=&quot;border-color: var(--border-color); color: rgb(0, 102, 204); font-family: &amp;quot;Architects Daughter&amp;quot;; font-size: 20px;&quot;&gt;Beeline&lt;/b&gt;" style="text;html=1;align=center;verticalAlign=middle;resizable=0;points=[];autosize=1;strokeColor=none;fillColor=none;" vertex="1" parent="51">
                    <mxGeometry y="52" width="90" height="40" as="geometry"/>
                </mxCell>
                <mxCell id="56" value="" style="shape=image;verticalLabelPosition=bottom;labelBackgroundColor=default;verticalAlign=top;aspect=fixed;imageAspect=0;image=https://upload.wikimedia.org/wikipedia/commons/thumb/e/ed/Pandas_logo.svg/2560px-Pandas_logo.svg.png;" vertex="1" parent="67">
                    <mxGeometry x="16.099999999999902" y="575" width="173.33" height="70" as="geometry"/>
                </mxCell>
                <mxCell id="54" value="" style="shape=image;verticalLabelPosition=bottom;labelBackgroundColor=default;verticalAlign=top;aspect=fixed;imageAspect=0;image=https://enterprisedb.com/sites/default/files/partner_logos/logo-dbeaver.png;" vertex="1" parent="67">
                    <mxGeometry x="29.999999999999982" y="365" width="140" height="70" as="geometry"/>
                </mxCell>
            </root>
        </mxGraphModel>
    </diagram>
</mxfile>